<?xml version="1.0" standalone="no"?>
<!DOCTYPE svg PUBLIC "-//W3C//DTD SVG 20010904//EN"
 "http://www.w3.org/TR/2001/REC-SVG-20010904/DTD/svg10.dtd">
<svg version="1.0" xmlns="http://www.w3.org/2000/svg"
 width="1316.000000pt" height="1316.000000pt" viewBox="0 0 1316.000000 1316.000000"
 preserveAspectRatio="xMidYMid meet">
<metadata>
Created by potrace 1.14, written by Peter Selinger 2001-2017
</metadata>
<g transform="translate(0.000000,1316.000000) scale(0.100000,-0.100000)"
fill="#000000" stroke="none">
<path d="M6015 12073 c-214 -47 -275 -71 -397 -157 -125 -88 -255 -268 -289
-402 -5 -19 -14 -51 -20 -71 -25 -86 -34 -167 -39 -336 0 -5 -436 -444 -969
-977 -908 -908 -971 -969 -997 -964 -130 25 -330 -11 -479 -86 -275 -138 -440
-421 -439 -752 0 -64 5 -133 11 -155 6 -21 17 -65 24 -98 7 -33 16 -64 21 -69
4 -6 8 -18 8 -27 0 -29 80 -170 141 -249 59 -76 148 -168 1079 -1111 860 -872
903 -914 965 -956 67 -45 164 -93 188 -93 9 0 19 -5 22 -10 4 -6 11 -8 16 -5
5 4 9 2 9 -3 0 -6 9 -8 20 -5 11 3 20 1 20 -3 0 -5 10 -9 23 -10 12 -1 42 -4
67 -8 56 -8 160 -10 167 -2 4 3 13 0 21 -7 13 -9 14 -9 8 1 -5 8 -1 12 11 13
48 4 60 6 86 17 16 7 33 10 38 6 5 -3 9 -1 9 3 0 8 21 13 67 17 12 0 21 5 20
11 -1 5 3 9 8 10 25 2 217 141 241 174 7 9 20 26 30 37 74 85 144 199 144 233
0 9 4 21 8 26 5 6 14 37 21 70 7 33 18 72 23 87 6 15 11 84 12 152 l1 125 153
154 153 155 279 -282 c153 -154 334 -338 402 -408 68 -70 301 -307 518 -527
217 -219 536 -542 709 -717 172 -176 585 -593 916 -929 332 -335 650 -658 707
-717 267 -279 641 -649 704 -696 64 -49 199 -122 223 -122 6 0 11 -5 11 -11 0
-5 4 -8 9 -4 10 6 142 -24 151 -34 6 -7 74 -11 150 -9 30 0 74 2 97 2 22 1 39
4 36 9 -2 4 3 8 11 8 35 3 52 6 66 12 8 3 34 11 58 17 106 27 268 125 363 220
54 55 159 192 159 208 0 7 5 12 10 12 6 0 10 9 10 19 0 11 3 21 8 23 11 4 109
207 116 241 35 154 45 331 25 411 -4 17 -13 56 -19 86 -14 65 -15 70 -68 180
-23 47 -65 116 -93 153 -28 37 -987 1003 -2129 2146 l-2079 2078 126 127 c132
133 145 140 207 116 17 -6 26 -6 26 1 0 6 6 6 18 0 11 -6 24 -6 36 1 14 8 21
7 27 -3 5 -8 9 -9 9 -4 0 6 14 12 31 13 17 1 40 7 51 13 16 9 19 8 12 -3 -6
-10 -5 -11 7 -1 8 7 29 14 46 18 18 3 43 9 57 15 15 5 26 6 26 2 0 -4 4 -2 8
3 4 6 34 23 67 40 65 33 155 97 205 147 44 45 140 172 140 186 0 7 5 12 10 12
6 0 10 9 10 20 0 11 5 20 10 20 6 0 10 6 10 13 0 8 7 28 15 45 22 43 61 204
70 287 12 115 12 175 -2 239 -52 254 -100 343 -286 531 -55 55 -110 113 -123
128 -13 16 -24 27 -24 24 0 -5 -424 419 -456 456 -13 16 -24 27 -24 24 0 -2
-271 268 -602 600 -332 332 -634 628 -673 658 -92 71 -176 111 -294 141 -90
23 -248 38 -296 27z m-10 -2020 c473 -477 1000 -1016 1003 -1023 3 -8 -1641
-1660 -1651 -1660 -2 0 -270 266 -595 591 l-590 590 238 242 c131 133 403 409
604 612 201 204 366 370 366 370 0 2 446 455 447 455 2 0 82 -80 178 -177z"/>
<path d="M2250 4273 c-14 -2 -59 -11 -100 -20 -41 -9 -81 -18 -88 -19 -40 -7
-162 -49 -201 -68 -299 -147 -502 -371 -619 -681 -31 -83 -44 -132 -62 -250
-17 -103 -8 -1573 9 -1635 7 -25 15 -60 18 -78 3 -18 9 -35 14 -38 5 -3 9 -14
9 -24 0 -31 88 -152 138 -190 25 -19 51 -40 57 -46 21 -21 110 -61 124 -56 8
2 11 0 7 -6 -3 -5 0 -10 7 -9 40 1 78 -4 74 -10 -3 -5 1445 -8 3218 -8 1773 0
3221 2 3219 4 -2 3 28 13 68 23 131 34 222 110 296 248 27 52 36 84 61 226 8
41 11 308 11 800 -1 812 1 774 -65 1009 -63 221 -209 433 -395 575 -161 122
-275 176 -480 226 l-115 29 -2590 1 c-1424 1 -2601 0 -2615 -3z m2106 -1049
c-5 -14 -4 -15 8 -5 11 9 58 12 158 12 78 -1 144 -3 146 -6 2 -2 15 1 29 6 22
8 24 7 19 -7 -5 -13 -4 -14 7 -5 8 6 25 11 38 11 13 0 140 0 282 0 142 0 263
3 269 6 8 5 9 1 4 -11 -5 -15 -4 -16 8 -6 11 9 57 12 158 11 426 -5 1738 -1
1749 6 9 5 10 2 5 -11 -6 -18 -6 -18 12 -2 10 9 21 15 23 13 2 -2 28 -6 57 -9
35 -4 59 -12 68 -24 8 -11 13 -13 14 -5 0 7 18 -1 44 -20 30 -22 55 -54 77
-96 l32 -63 2 -407 c0 -224 -2 -411 -6 -417 -5 -7 -921 -10 -2716 -9 l-2708 0
1 415 c0 396 1 416 21 459 11 25 29 55 40 68 34 37 95 82 104 76 5 -3 9 0 9 7
0 6 8 9 20 6 11 -3 22 -1 25 3 3 5 451 8 996 8 544 0 993 3 996 6 11 11 15 6
9 -10z"/>
</g>
</svg>
